# xmcd CD database file
#
# Track frame offsets:
#	183
#	33833
#	58833
#	77308
#	91058
#	114750
#	134033
#	157358
#	181058
#
# Disc length: 2654 seconds
#
# Revision: 0
# Processed by: cddbd v1.4PL0 Copyright (c) Steve Scherf et al.
# Submitted via: CDex 1.50
#
DISCID=690a5c09
DTITLE=Powerhouse Blues Band - Move the Pool Table
DYEAR=1992
DGENRE=Blues
TTITLE0=Angel Of Mercy
TTITLE1=Don't Need You Anymore
TTITLE2=Six By Six
TTITLE3=Real Bad Case
TTITLE4=Son of A Bitch Blues
TTITLE5=They Call Me The Doctor
TTITLE6=Cross Cut Saw Blues
TTITLE7=Rollin' Tonight
TTITLE8=Powerhouse Boogie
EXTD=YEAR: 1992
EXTT0=
EXTT1=
EXTT2=
EXTT3=
EXTT4=
EXTT5=
EXTT6=
EXTT7=
EXTT8=
PLAYORDER=
